<svg width="101" height="113" viewBox="0 0 101 113" fill="none" xmlns="http://www.w3.org/2000/svg">
<path opacity="0.98" d="M49.4831 0.299402C28.2101 0.718113 11.2506 14.2581 11.2506 30.9971V44.0488H0.96167V88.4342H0.976616C0.961673 88.7548 0.96167 89.0762 0.96167 89.4001C0.96167 102.29 13.0376 112.665 28.0467 112.665H72.9229C87.932 112.665 100.023 102.29 100.023 89.4001C100.023 89.0763 100.008 88.7546 99.993 88.4342H100.023V44.0488H89.7494V30.9971C89.7494 13.9927 72.2533 0.299402 50.5075 0.299402C50.1677 0.299402 49.8208 0.292617 49.4831 0.299402ZM49.3023 9.25186C49.5605 9.24696 49.8261 9.25186 50.0857 9.25186C62.5178 9.02475 74.7373 16.2167 77.2763 25.7666C77.7085 31.8603 77.952 37.9491 78.0898 44.0485H22.9864C22.9734 41.132 22.9561 38.2224 22.881 35.3078C19.7342 22.8366 33.0403 9.55041 49.3033 9.25149L49.3023 9.25186ZM50.4472 60.2827C51.0338 60.2827 51.6269 60.3186 52.2248 60.3888C58.6023 61.1369 63.0034 65.7795 62.0466 70.7664C61.6061 73.0628 60.0911 75.0387 57.9793 76.4206L62.0617 96.4342H38.9232L42.9905 76.4206C39.9818 74.4448 38.3127 71.3183 38.9382 68.0569C39.8052 63.5373 44.7768 60.2945 50.4472 60.2824V60.2827Z" fill="black"/>
</svg>
